<svg xmlns="http://www.w3.org/2000/svg" width="32" height="32" viewBox="0 0 32 32">
    <g fill="none" fill-rule="evenodd">
        <g>
            <g>
                <g>
                    <g>
                        <path d="M0 0H32V32H0z" transform="translate(-514 -380) translate(434) translate(80 188) translate(0 192)"/>
                        <g stroke="#FFF" stroke-linecap="round" stroke-linejoin="round" stroke-width="1.5">
                            <path d="M1.6 11.2H16c.883 0 1.6.717 1.6 1.6v8c0 .883-.717 1.6-1.6 1.6H1.6c-.883 0-1.6-.717-1.6-1.6v-8c0-.883.717-1.6 1.6-1.6z" transform="translate(-514 -380) translate(434) translate(80 188) translate(0 192) translate(4 5)"/>
                            <path d="M17.6 19.554l5.32 1.995c.413.154.874-.055 1.029-.468.034-.09.051-.185.051-.281v-7.292c-.001-.441-.358-.799-.8-.798-.096 0-.19.017-.28.052l-5.32 1.994v4.798zM4 14.4L12.8 14.4M4 0c2.21 0 4 1.79 4 4S6.21 8 4 8 0 6.21 0 4s1.79-4 4-4zM14.4 1.6c1.767 0 3.2 1.433 3.2 3.2 0 1.767-1.433 3.2-3.2 3.2-1.767 0-3.2-1.433-3.2-3.2 0-1.767 1.433-3.2 3.2-3.2z" transform="translate(-514 -380) translate(434) translate(80 188) translate(0 192) translate(4 5)"/>
                        </g>
                    </g>
                </g>
            </g>
        </g>
    </g>
</svg>
